<svg viewBox="0 0 400 68" fill="none" xmlns="http://www.w3.org/2000/svg">
<g id="logo">
<g id="PRESS">
<path d="M127.163 66.0406V1.57065H150.673C156.203 1.57065 160.989 2.50188 165.029 4.36434C169.097 6.19816 172.221 8.81993 174.398 12.2297C176.605 15.6108 177.708 19.6365 177.708 24.307C177.708 28.9775 176.605 33.032 174.398 36.4704C172.221 39.8801 169.126 42.5162 165.115 44.3787C161.103 46.2411 156.361 47.1724 150.888 47.1724H144.183V66.0406H127.163ZM144.183 32.3443H148.997C152.665 32.3443 155.458 31.6566 157.378 30.2812C159.327 28.9059 160.301 26.9145 160.301 24.307C160.301 21.7569 159.327 19.8085 157.378 18.4618C155.43 17.0864 152.636 16.3987 148.997 16.3987H144.183V32.3443Z" fill="#463000"/>
<path d="M243.381 66.0406H224.556L212.264 44.7225H203.324V66.0406H186.304V1.57065H213.553C219.14 1.57065 223.897 2.41592 227.822 4.10646C231.748 5.79701 234.742 8.26119 236.805 11.499C238.897 14.7082 239.943 18.5907 239.943 23.1466C239.943 27.4159 239.026 31.0979 237.192 34.1924C235.358 37.287 232.708 39.7225 229.241 41.499L243.381 66.0406ZM203.324 31.6136H212.221C215.63 31.6136 218.195 30.9833 219.914 29.7225C221.662 28.4331 222.536 26.5277 222.536 24.0062C222.536 21.4847 221.662 19.5936 219.914 18.3328C218.195 17.0434 215.63 16.3987 212.221 16.3987H203.324V31.6136Z" fill="#463000"/>
<path d="M248.539 66.0406V1.57065H291.519V16.3987H265.559V26.3701H289.799V41.1982H265.559V51.2125H291.948V66.0406H248.539Z" fill="#463000"/>
<path d="M296.676 58.648L304.67 45.6681C306.762 47.3013 308.711 48.6337 310.516 49.6652C312.35 50.6967 314.126 51.456 315.845 51.9431C317.593 52.4016 319.37 52.6308 321.175 52.6308C322.951 52.6308 324.47 52.4302 325.731 52.0291C326.991 51.5993 327.951 50.9976 328.61 50.2239C329.298 49.4216 329.642 48.4761 329.642 47.3873C329.642 46.0119 329.155 44.8371 328.181 43.8629C327.206 42.8887 325.903 42.0148 324.269 41.2411C322.665 40.4675 320.903 39.6939 318.983 38.9202C316.92 38.0893 314.814 37.1724 312.665 36.1695C310.516 35.138 308.539 33.8916 306.734 32.4302C304.928 30.9689 303.467 29.1924 302.35 27.1007C301.232 24.9804 300.673 22.4016 300.673 19.3643C300.673 15.3529 301.676 11.9288 303.682 9.09214C305.716 6.22681 308.481 4.04916 311.977 2.55919C315.501 1.04056 319.484 0.28125 323.925 0.28125C327.163 0.28125 330.587 0.711049 334.198 1.57065C337.808 2.43025 341.461 3.77695 345.158 5.61076L338.539 19.2784C336.476 18.0176 334.212 17.0148 331.748 16.2698C329.312 15.4961 327.077 15.1093 325.043 15.1093C323.639 15.1093 322.407 15.2956 321.347 15.6681C320.315 16.0406 319.513 16.585 318.94 17.3013C318.367 17.989 318.08 18.8056 318.08 19.7512C318.08 21.0119 318.567 22.1294 319.542 23.1036C320.516 24.0492 321.805 24.9231 323.41 25.7254C325.014 26.5277 326.762 27.3443 328.653 28.1752C330.716 29.0635 332.822 30.052 334.971 31.1408C337.149 32.2297 339.14 33.5191 340.946 35.009C342.779 36.499 344.255 38.2898 345.372 40.3815C346.49 42.4446 347.049 44.9231 347.049 47.8171C347.049 51.6853 345.989 55.095 343.868 58.0463C341.776 60.9689 338.84 63.2469 335.057 64.8801C331.304 66.5133 326.934 67.33 321.948 67.33C317.307 67.33 312.837 66.585 308.539 65.095C304.241 63.605 300.287 61.456 296.676 58.648Z" fill="#463000"/>
<path d="M349.627 58.648L357.622 45.6681C359.713 47.3013 361.662 48.6337 363.467 49.6652C365.301 50.6967 367.077 51.456 368.797 51.9431C370.544 52.4016 372.321 52.6308 374.126 52.6308C375.903 52.6308 377.421 52.4302 378.682 52.0291C379.943 51.5993 380.903 50.9976 381.562 50.2239C382.249 49.4216 382.593 48.4761 382.593 47.3873C382.593 46.0119 382.106 44.8371 381.132 43.8629C380.158 42.8887 378.854 42.0148 377.221 41.2411C375.616 40.4675 373.854 39.6939 371.934 38.9202C369.871 38.0893 367.765 37.1724 365.616 36.1695C363.467 35.138 361.49 33.8916 359.685 32.4302C357.88 30.9689 356.418 29.1924 355.301 27.1007C354.183 24.9804 353.625 22.4016 353.625 19.3643C353.625 15.3529 354.627 11.9288 356.633 9.09214C358.668 6.22681 361.433 4.04916 364.928 2.55919C368.453 1.04056 372.436 0.28125 376.877 0.28125C380.115 0.28125 383.539 0.711049 387.149 1.57065C390.759 2.43025 394.413 3.77695 398.109 5.61076L391.49 19.2784C389.427 18.0176 387.163 17.0148 384.699 16.2698C382.264 15.4961 380.029 15.1093 377.994 15.1093C376.59 15.1093 375.358 15.2956 374.298 15.6681C373.266 16.0406 372.464 16.585 371.891 17.3013C371.318 17.989 371.031 18.8056 371.031 19.7512C371.031 21.0119 371.519 22.1294 372.493 23.1036C373.467 24.0492 374.756 24.9231 376.361 25.7254C377.966 26.5277 379.713 27.3443 381.605 28.1752C383.668 29.0635 385.774 30.052 387.923 31.1408C390.1 32.2297 392.092 33.5191 393.897 35.009C395.731 36.499 397.206 38.2898 398.324 40.3815C399.441 42.4446 400 44.9231 400 47.8171C400 51.6853 398.94 55.095 396.819 58.0463C394.728 60.9689 391.791 63.2469 388.009 64.8801C384.255 66.5133 379.885 67.33 374.9 67.33C370.258 67.33 365.788 66.585 361.49 65.095C357.192 63.605 353.238 61.456 349.627 58.648Z" fill="#463000"/>
</g>
<path id="Exclude" fill-rule="evenodd" clip-rule="evenodd" d="M16.5293 1.85718H39.57V34.2136C39.57 38.2248 39.1526 41.5208 38.3178 44.1014C37.5108 46.6821 36.2586 48.6036 34.5612 49.8659C32.8637 51.1001 30.6932 51.7172 28.0496 51.7172C25.4061 51.7172 23.2356 51.1001 21.5381 49.8659C19.8407 48.6036 18.5745 46.6821 17.7397 44.1014C16.9327 41.5208 16.5293 38.2248 16.5293 34.2136V1.85718ZM56.0993 36.4857V1.85718H126.913L110.029 1.85723V40.1825L87.0043 1.85723H67.1352V66.2335L28.0496 66.2334C33.8933 66.2334 38.9022 65.0413 43.0762 62.6569C47.2781 60.2726 50.4921 56.8645 52.7183 52.4325C54.9723 47.9724 56.0993 42.6568 56.0993 36.4857ZM28.0496 66.2334H0V36.4857C0 42.6568 1.11308 47.9724 3.33924 52.4325C5.59323 56.8645 8.82117 60.2726 13.023 62.6569C17.2249 65.0413 22.2338 66.2334 28.0496 66.2334ZM84.0197 66.2335H107.044H126.913L126.913 1.85718V66.2334L107.044 66.2335L84.0197 28.0369V66.2335Z" fill="url(#paint0_linear_19_81)"/>
</g>
<defs>
<linearGradient id="paint0_linear_19_81" x1="0" y1="66.2334" x2="117.089" y2="-12.5501" gradientUnits="userSpaceOnUse">
<stop stop-color="#FFBB00"/>
<stop offset="1" stop-color="#FF6600"/>
</linearGradient>
</defs>
</svg>
