<svg width="162" height="100" viewBox="0 0 162 100" fill="none" xmlns="http://www.w3.org/2000/svg">
<path d="M150.32 0H11.6796C5.24492 0 0 5.25969 0 11.7124V88.2876C0 94.7403 5.24492 100 11.6796 100H150.32C156.755 100 162 94.7403 162 88.2876V11.7378C162 5.25969 156.78 0.0253884 150.32 0.0253884V0ZM38.942 23.4554V53.9168L54.5248 34.3758L70.0824 53.9168V23.4554H85.6652V76.5497H70.0824L54.5248 57.0087L38.942 76.5497H23.3591V23.4249L38.942 23.4554ZM143.304 50.0025H127.721V76.5497H112.163V50.0025H96.5803L119.945 22.6634L143.304 50.0025Z" fill="black"/>
</svg>
